# xmcd
#
# Track frame offsets:
#	150
#	13900
#	27027
#	41882
#	59637
#	75597
#	98952
#	112460
#	134607
#
# Disc length: 1967 seconds
#
# Revision: 0
# Processed by: cddbd v1.5.2PL0 Copyright (c) Steve Scherf et al.
# Submitted via: audiograbber 1.83.01
#
DISCID=8207ad09
DTITLE=Various Artist - Southern Rock 70's Greatest Rock hits vol. 7
DYEAR=1900
DGENRE=Country
TTITLE0=Jim Croce - You Don't Mess Around With Jim
TTITLE1=Dr.Hook and The Medicine Show - Cover of the Rolling Stones
TTITLE2=The BEllamy Brothers - Let Your Love Flow
TTITLE3=The Guess Who - Share The Land
TTITLE4=Pousette- Dart Band - County Line
TTITLE5=Lynyrd Skynyrd - Saturday Night Special
TTITLE6=Molly HAtchet - Bounty Hunter
TTITLE7=POCO - Heart Of The Night
TTITLE8=England DAn and John Ford Coley - Nights Are Forever Without You
EXTD=
EXTT0=
EXTT1=
EXTT2=
EXTT3=
EXTT4=
EXTT5=
EXTT6=
EXTT7=
EXTT8=
PLAYORDER=
